{
	"patcher" : 	{
		"fileversion" : 1,
		"appversion" : 		{
			"major" : 7,
			"minor" : 3,
			"revision" : 3,
			"architecture" : "x86",
			"modernui" : 1
		}
,
		"rect" : [ -1716.0, 112.0, 1382.0, 798.0 ],
		"bglocked" : 0,
		"openinpresentation" : 0,
		"default_fontsize" : 12.0,
		"default_fontface" : 0,
		"default_fontname" : "Arial",
		"gridonopen" : 1,
		"gridsize" : [ 15.0, 15.0 ],
		"gridsnaponopen" : 1,
		"objectsnaponopen" : 1,
		"statusbarvisible" : 2,
		"toolbarvisible" : 1,
		"lefttoolbarpinned" : 0,
		"toptoolbarpinned" : 0,
		"righttoolbarpinned" : 0,
		"bottomtoolbarpinned" : 0,
		"toolbars_unpinned_last_save" : 3,
		"tallnewobj" : 0,
		"boxanimatetime" : 200,
		"enablehscroll" : 1,
		"enablevscroll" : 1,
		"devicewidth" : 0.0,
		"description" : "",
		"digest" : "",
		"tags" : "",
		"style" : "",
		"subpatcher_template" : "",
		"boxes" : [ 			{
				"box" : 				{
					"id" : "obj-20",
					"maxclass" : "newobj",
					"numinlets" : 1,
					"numoutlets" : 0,
					"patching_rect" : [ 1112.5, 403.0, 84.0, 22.0 ],
					"style" : "",
					"text" : "s tctrl.vals.out"
				}

			}
, 			{
				"box" : 				{
					"id" : "obj-19",
					"maxclass" : "newobj",
					"numinlets" : 0,
					"numoutlets" : 1,
					"outlettype" : [ "" ],
					"patching_rect" : [ 1112.5, 371.0, 80.0, 22.0 ],
					"style" : "",
					"text" : "r tctrl.seq.out"
				}

			}
, 			{
				"box" : 				{
					"id" : "obj-16",
					"maxclass" : "newobj",
					"numinlets" : 0,
					"numoutlets" : 1,
					"outlettype" : [ "" ],
					"patching_rect" : [ 1216.0, 315.0, 80.0, 22.0 ],
					"style" : "",
					"text" : "r tctrl.seq.out"
				}

			}
, 			{
				"box" : 				{
					"id" : "obj-14",
					"maxclass" : "newobj",
					"numinlets" : 0,
					"numoutlets" : 0,
					"patching_rect" : [ 796.0, 551.0, 76.0, 22.0 ],
					"style" : "",
					"text" : "tctrl-controls"
				}

			}
, 			{
				"box" : 				{
					"id" : "obj-13",
					"maxclass" : "newobj",
					"numinlets" : 1,
					"numoutlets" : 0,
					"patching_rect" : [ 1109.5, 467.0, 106.0, 22.0 ],
					"style" : "",
					"text" : "s tctrl.mapped.out"
				}

			}
, 			{
				"box" : 				{
					"id" : "obj-10",
					"maxclass" : "newobj",
					"numinlets" : 1,
					"numoutlets" : 0,
					"patching_rect" : [ 1006.0, 371.0, 77.0, 22.0 ],
					"style" : "",
					"text" : "s tctrl.vals.in"
				}

			}
, 			{
				"box" : 				{
					"id" : "obj-6",
					"maxclass" : "newobj",
					"numinlets" : 0,
					"numoutlets" : 1,
					"outlettype" : [ "" ],
					"patching_rect" : [ 32.5, 96.0, 75.0, 22.0 ],
					"style" : "",
					"text" : "r tctrl.vals.in"
				}

			}
, 			{
				"box" : 				{
					"id" : "obj-15",
					"maxclass" : "newobj",
					"numinlets" : 1,
					"numoutlets" : 0,
					"patching_rect" : [ 1006.0, 467.0, 81.0, 22.0 ],
					"style" : "",
					"text" : "s tctrl.osc.out"
				}

			}
, 			{
				"box" : 				{
					"id" : "obj-2",
					"maxclass" : "newobj",
					"numinlets" : 0,
					"numoutlets" : 1,
					"outlettype" : [ "" ],
					"patching_rect" : [ 1006.0, 422.0, 82.0, 22.0 ],
					"style" : "",
					"text" : "r tctrl.vals.out"
				}

			}
, 			{
				"box" : 				{
					"id" : "obj-11",
					"maxclass" : "newobj",
					"numinlets" : 0,
					"numoutlets" : 0,
					"patching_rect" : [ 792.0, 404.0, 106.0, 22.0 ],
					"style" : "",
					"text" : "tctrl-mapping"
				}

			}
, 			{
				"box" : 				{
					"id" : "obj-34",
					"maxclass" : "newobj",
					"numinlets" : 0,
					"numoutlets" : 1,
					"outlettype" : [ "" ],
					"patching_rect" : [ 1095.5, 315.0, 97.0, 22.0 ],
					"style" : "",
					"text" : "r tctrl.mapped.in"
				}

			}
, 			{
				"box" : 				{
					"bgmode" : 0,
					"border" : 0,
					"clickthrough" : 0,
					"enablehscroll" : 0,
					"enablevscroll" : 0,
					"id" : "obj-5",
					"lockeddragscroll" : 0,
					"maxclass" : "bpatcher",
					"name" : "tctrl-module-host.maxpat",
					"numinlets" : 1,
					"numoutlets" : 1,
					"offset" : [ 0.0, 0.0 ],
					"outlettype" : [ "" ],
					"patching_rect" : [ 32.5, 134.5, 711.0, 498.5 ],
					"presentation" : 1,
					"presentation_rect" : [ 6.5, 11.5, 459.0, 498.5 ],
					"viewvisibility" : 1
				}

			}
, 			{
				"box" : 				{
					"id" : "obj-9",
					"linecount" : 2,
					"maxclass" : "newobj",
					"numinlets" : 2,
					"numoutlets" : 4,
					"outlettype" : [ "dictionary", "", "", "" ],
					"patching_rect" : [ 792.0, 479.0, 129.0, 36.0 ],
					"saved_object_attributes" : 					{
						"embed" : 0,
						"parameter_enable" : 0
					}
,
					"style" : "",
					"text" : "dict tctrl.state.params tctrl-state-params.json"
				}

			}
, 			{
				"box" : 				{
					"id" : "obj-12",
					"maxclass" : "newobj",
					"numinlets" : 0,
					"numoutlets" : 0,
					"patching_rect" : [ 792.0, 443.0, 84.0, 22.0 ],
					"style" : "",
					"text" : "tctrl-app-state"
				}

			}
, 			{
				"box" : 				{
					"bgmode" : 0,
					"border" : 0,
					"clickthrough" : 0,
					"enablehscroll" : 0,
					"enablevscroll" : 0,
					"id" : "obj-8",
					"lockeddragscroll" : 0,
					"maxclass" : "bpatcher",
					"name" : "tctrl-midi-io.maxpat",
					"numinlets" : 0,
					"numoutlets" : 0,
					"offset" : [ 0.0, 0.0 ],
					"patching_rect" : [ 769.0, 156.0, 386.0, 90.0 ],
					"presentation" : 1,
					"presentation_rect" : [ 498.0, 318.5, 240.0, 94.0 ],
					"varname" : "tctrl-midi-io",
					"viewvisibility" : 1
				}

			}
, 			{
				"box" : 				{
					"bgmode" : 0,
					"border" : 0,
					"clickthrough" : 0,
					"enablehscroll" : 0,
					"enablevscroll" : 0,
					"id" : "obj-7",
					"lockeddragscroll" : 0,
					"maxclass" : "bpatcher",
					"name" : "tctrl-timing.maxpat",
					"numinlets" : 0,
					"numoutlets" : 0,
					"offset" : [ 0.0, 0.0 ],
					"patching_rect" : [ 1098.0, 12.0, 186.0, 72.0 ],
					"presentation" : 1,
					"presentation_rect" : [ 502.0, 419.5, 186.0, 72.0 ],
					"viewvisibility" : 1
				}

			}
, 			{
				"box" : 				{
					"id" : "obj-4",
					"maxclass" : "newobj",
					"numinlets" : 0,
					"numoutlets" : 1,
					"outlettype" : [ "" ],
					"patching_rect" : [ 1006.0, 315.0, 72.0, 22.0 ],
					"style" : "",
					"text" : "r tctrl.osc.in"
				}

			}
, 			{
				"box" : 				{
					"bgmode" : 0,
					"border" : 0,
					"clickthrough" : 0,
					"enablehscroll" : 0,
					"enablevscroll" : 0,
					"id" : "obj-40",
					"lockeddragscroll" : 0,
					"maxclass" : "bpatcher",
					"name" : "tctrl-schema-loader.maxpat",
					"numinlets" : 0,
					"numoutlets" : 0,
					"offset" : [ 0.0, 0.0 ],
					"patching_rect" : [ 491.0, 12.0, 233.0, 113.0 ],
					"presentation" : 1,
					"presentation_rect" : [ 502.0, 150.5, 232.0, 152.0 ],
					"viewvisibility" : 1
				}

			}
, 			{
				"box" : 				{
					"bgmode" : 0,
					"border" : 0,
					"clickthrough" : 0,
					"enablehscroll" : 0,
					"enablevscroll" : 0,
					"id" : "obj-1",
					"lockeddragscroll" : 0,
					"maxclass" : "bpatcher",
					"name" : "tctrl-osc-io.maxpat",
					"numinlets" : 0,
					"numoutlets" : 0,
					"offset" : [ 0.0, 0.0 ],
					"patching_rect" : [ 769.0, 12.0, 309.0, 130.0 ],
					"presentation" : 1,
					"presentation_rect" : [ 502.0, 11.5, 350.0, 130.0 ],
					"varname" : "tctrl-osc-io",
					"viewvisibility" : 1
				}

			}
, 			{
				"box" : 				{
					"id" : "obj-3",
					"maxclass" : "newobj",
					"numinlets" : 1,
					"numoutlets" : 0,
					"patching_rect" : [ 32.5, 649.0, 84.0, 22.0 ],
					"style" : "",
					"text" : "s tctrl.vals.out"
				}

			}
 ],
		"lines" : [ 			{
				"patchline" : 				{
					"destination" : [ "obj-10", 0 ],
					"disabled" : 0,
					"hidden" : 0,
					"source" : [ "obj-16", 0 ]
				}

			}
, 			{
				"patchline" : 				{
					"destination" : [ "obj-20", 0 ],
					"disabled" : 0,
					"hidden" : 0,
					"source" : [ "obj-19", 0 ]
				}

			}
, 			{
				"patchline" : 				{
					"destination" : [ "obj-13", 0 ],
					"disabled" : 0,
					"hidden" : 0,
					"order" : 0,
					"source" : [ "obj-2", 0 ]
				}

			}
, 			{
				"patchline" : 				{
					"destination" : [ "obj-15", 0 ],
					"disabled" : 0,
					"hidden" : 0,
					"order" : 1,
					"source" : [ "obj-2", 0 ]
				}

			}
, 			{
				"patchline" : 				{
					"destination" : [ "obj-10", 0 ],
					"disabled" : 0,
					"hidden" : 0,
					"source" : [ "obj-34", 0 ]
				}

			}
, 			{
				"patchline" : 				{
					"destination" : [ "obj-10", 0 ],
					"disabled" : 0,
					"hidden" : 0,
					"source" : [ "obj-4", 0 ]
				}

			}
, 			{
				"patchline" : 				{
					"destination" : [ "obj-3", 0 ],
					"disabled" : 0,
					"hidden" : 0,
					"source" : [ "obj-5", 0 ]
				}

			}
, 			{
				"patchline" : 				{
					"destination" : [ "obj-5", 0 ],
					"disabled" : 0,
					"hidden" : 0,
					"source" : [ "obj-6", 0 ]
				}

			}
 ],
		"dependency_cache" : [ 			{
				"name" : "tctrl-osc-io.maxpat",
				"bootpath" : "~/creations/tctrl/tctrl-max/patchers",
				"type" : "JSON",
				"implicit" : 1
			}
, 			{
				"name" : "tctrl-schema-loader.maxpat",
				"bootpath" : "~/creations/tctrl/tctrl-max/patchers",
				"type" : "JSON",
				"implicit" : 1
			}
, 			{
				"name" : "tctrl-flatten.js",
				"bootpath" : "~/creations/tctrl/tctrl-max/code",
				"type" : "TEXT",
				"implicit" : 1
			}
, 			{
				"name" : "tctrl-timing.maxpat",
				"bootpath" : "~/creations/tctrl/tctrl-max/patchers",
				"type" : "JSON",
				"implicit" : 1
			}
, 			{
				"name" : "tctrl-time-ramp-gen.maxpat",
				"bootpath" : "~/creations/tctrl/tctrl-max/patchers",
				"type" : "JSON",
				"implicit" : 1
			}
, 			{
				"name" : "tctrl-util-menu-handler.maxpat",
				"bootpath" : "~/creations/tctrl/tctrl-max/patchers",
				"type" : "JSON",
				"implicit" : 1
			}
, 			{
				"name" : "tctrl-util-dict-get-keys.maxpat",
				"bootpath" : "~/creations/tctrl/tctrl-max/patchers",
				"type" : "JSON",
				"implicit" : 1
			}
, 			{
				"name" : "tctrl-util-dict-safe-get.maxpat",
				"bootpath" : "~/creations/tctrl/tctrl-max/patchers",
				"type" : "JSON",
				"implicit" : 1
			}
, 			{
				"name" : "tctrl-midi-io.maxpat",
				"bootpath" : "~/creations/tctrl/tctrl-max/patchers",
				"type" : "JSON",
				"implicit" : 1
			}
, 			{
				"name" : "tctrl-app-state.maxpat",
				"bootpath" : "~/creations/tctrl/tctrl-max/patchers",
				"type" : "JSON",
				"implicit" : 1
			}
, 			{
				"name" : "tctrl-module-host.maxpat",
				"bootpath" : "~/creations/tctrl/tctrl-max/patchers",
				"type" : "JSON",
				"implicit" : 1
			}
, 			{
				"name" : "tctrl-module.maxpat",
				"bootpath" : "~/creations/tctrl/tctrl-max/patchers",
				"type" : "JSON",
				"implicit" : 1
			}
, 			{
				"name" : "tctrl-menu.maxpat",
				"bootpath" : "~/creations/tctrl/tctrl-max/patchers",
				"type" : "JSON",
				"implicit" : 1
			}
, 			{
				"name" : "tctrl-param-core.maxpat",
				"bootpath" : "~/creations/tctrl/tctrl-max/patchers",
				"type" : "JSON",
				"implicit" : 1
			}
, 			{
				"name" : "tctrl-slider.maxpat",
				"bootpath" : "~/creations/tctrl/tctrl-max/patchers",
				"type" : "JSON",
				"implicit" : 1
			}
, 			{
				"name" : "tctrl-button.maxpat",
				"bootpath" : "~/creations/tctrl/tctrl-max/patchers",
				"type" : "JSON",
				"implicit" : 1
			}
, 			{
				"name" : "tctrl-module.js",
				"bootpath" : "~/creations/tctrl/tctrl-max/code",
				"type" : "TEXT",
				"implicit" : 1
			}
, 			{
				"name" : "tctrl-module-selector.maxpat",
				"bootpath" : "~/creations/tctrl/tctrl-max/patchers",
				"type" : "JSON",
				"implicit" : 1
			}
, 			{
				"name" : "tctrl-mapping.maxpat",
				"bootpath" : "~/creations/tctrl/tctrl-max/patchers",
				"type" : "JSON",
				"implicit" : 1
			}
, 			{
				"name" : "tctrl-mapping-editor.maxpat",
				"bootpath" : "~/creations/tctrl/tctrl-max/patchers",
				"type" : "JSON",
				"implicit" : 1
			}
, 			{
				"name" : "tctrl-mapping-editor-range-part.maxpat",
				"bootpath" : "~/creations/tctrl/tctrl-max/patchers",
				"type" : "JSON",
				"implicit" : 1
			}
, 			{
				"name" : "tctrl-param-selector.maxpat",
				"bootpath" : "~/creations/tctrl/tctrl-max/patchers",
				"type" : "JSON",
				"implicit" : 1
			}
, 			{
				"name" : "tctrl-controls.maxpat",
				"bootpath" : "~/creations/tctrl/tctrl-max/patchers",
				"type" : "JSON",
				"implicit" : 1
			}
 ],
		"autosave" : 0
	}

}
